<svg width="1024" height="1024" viewBox="0 0 1024 1024" fill="none" xmlns="http://www.w3.org/2000/svg">
<rect width="1024" height="1024" rx="30" fill="url(#paint0_linear_901_73)"/>
<g filter="url(#filter0_d_901_73)">
<path d="M512.588 144C565.169 144 607.481 150.589 639.522 163.767C672.386 176.12 697.444 193.004 714.697 214.417C732.772 235.007 745.095 258.48 751.668 284.835C758.241 311.19 761.527 337.956 761.527 365.135V388.607C761.527 438.023 748.793 482.498 723.324 522.03C698.677 560.739 659.241 588.33 605.017 604.802C625.556 617.156 644.863 629.921 662.938 643.099C681.834 655.452 703.195 668.63 727.021 682.631C754.133 698.279 779.191 709.809 802.195 717.222C826.021 723.81 845.74 727.929 861.35 729.576C876.96 731.223 885.997 732.047 888.462 732.047L851.49 871.646C841.631 874.117 826.432 876.588 805.893 879.059C786.175 882.353 764.814 884 741.81 884C708.946 884 672.385 879.059 632.128 869.176C591.87 858.469 552.024 832.937 512.588 792.581L460.829 740.694C436.182 715.987 412.355 695.808 389.351 680.16C367.168 664.512 341.699 652.982 312.944 645.569C290.477 639.134 263.495 635.213 232 633.806V465.793C241.765 466.346 251.905 466.97 262.417 467.673C287.064 468.496 312.123 468.908 337.592 468.908C358.131 468.908 377.849 468.496 396.745 467.673C416.463 466.849 434.127 465.614 449.737 463.967C477.671 460.672 496.568 452.025 506.427 438.023C517.107 423.199 522.447 405.491 522.447 384.901V371.312C522.447 353.193 517.107 339.192 506.427 329.309C496.568 319.425 478.082 314.484 450.97 314.484H232V144H512.588Z" fill="white"/>
</g>
<defs>
<filter id="filter0_d_901_73" x="228" y="144" width="664.462" height="748" filterUnits="userSpaceOnUse" color-interpolation-filters="sRGB">
<feFlood flood-opacity="0" result="BackgroundImageFix"/>
<feColorMatrix in="SourceAlpha" type="matrix" values="0 0 0 0 0 0 0 0 0 0 0 0 0 0 0 0 0 0 127 0" result="hardAlpha"/>
<feOffset dy="4"/>
<feGaussianBlur stdDeviation="2"/>
<feComposite in2="hardAlpha" operator="out"/>
<feColorMatrix type="matrix" values="0 0 0 0 0.163856 0 0 0 0 0.163856 0 0 0 0 0.163856 0 0 0 0.25 0"/>
<feBlend mode="normal" in2="BackgroundImageFix" result="effect1_dropShadow_901_73"/>
<feBlend mode="normal" in="SourceGraphic" in2="effect1_dropShadow_901_73" result="shape"/>
</filter>
<linearGradient id="paint0_linear_901_73" x1="0" y1="512" x2="1024" y2="512" gradientUnits="userSpaceOnUse">
<stop stop-color="#326CD9"/>
<stop offset="1" stop-color="#B83D7A"/>
</linearGradient>
</defs>
</svg>
